<svg width="430" height="430" viewBox="0 0 430 430" fill="none" xmlns="http://www.w3.org/2000/svg">
<path d="M229.6 60.6L221 52C218.6 49.7 214.8 49.7 212.5 52C210.2 54.3 210.2 58.1 212.5 60.5L221.1 69.1C222.3 70.3 223.8 70.9 225.3 70.9C226.8 70.9 228.4 70.3 229.5 69.1C231.9 66.7 231.9 62.9 229.6 60.6ZM268.1 99.5L245.4 76.1C243.1 73.7 239.3 73.7 236.9 76C234.5 78.3 234.5 82.1 236.8 84.5L259.5 107.9C260.7 109.1 262.2 109.7 263.8 109.7C265.3 109.7 266.8 109.1 268 108C270.3 105.7 270.4 101.9 268.1 99.5ZM370.4 205.1L332.4 165.9C330.1 163.5 326.3 163.5 323.9 165.8C321.5 168.1 321.5 171.9 323.8 174.3L361.8 213.5C363 214.7 364.5 215.3 366.1 215.3C367.6 215.3 369.1 214.7 370.3 213.6C372.6 211.3 372.7 207.5 370.4 205.1ZM109 258.4L60.1996 209.6C57.7996 207.3 53.9996 207.3 51.6996 209.6C49.3996 211.9 49.3996 215.7 51.6996 218.1L100.5 266.9C101.7 268.1 103.2 268.7 104.7 268.7C106.2 268.7 107.8 268.1 108.9 266.9C111.3 264.6 111.3 260.8 109 258.4ZM213 362.4L174.4 323.8C172.1 321.5 168.3 321.5 165.9 323.8C163.6 326.1 163.6 329.9 165.9 332.3L204.5 370.9C205.7 372.1 207.2 372.7 208.7 372.7C210.2 372.7 211.8 372.1 212.9 370.9C215.3 368.6 215.3 364.8 213 362.4ZM115.4 185.3L57.1996 127.1C54.8996 124.8 51.0996 124.8 48.6996 127.1C46.3996 129.4 46.3996 133.2 48.6996 135.6L106.9 193.8C108.1 195 109.6 195.6 111.1 195.6C112.6 195.6 114.2 195 115.3 193.8C117.8 191.4 117.8 187.6 115.4 185.3ZM197.4 267.2L134 203.8C131.7 201.5 127.9 201.5 125.5 203.8C123.2 206.1 123.2 209.9 125.5 212.3L188.9 275.7C190.1 276.9 191.6 277.5 193.1 277.5C194.6 277.5 196.2 276.9 197.3 275.7C199.8 273.4 199.8 269.6 197.4 267.2ZM234.7 145.4L147.5 58.2C145.1 55.9 141.3 55.9 139 58.2C136.7 60.5 136.7 64.3 139 66.7L226.2 153.9C227.4 155.1 228.9 155.7 230.4 155.7C231.9 155.7 233.5 155.1 234.6 153.9C237.1 151.5 237.1 147.7 234.7 145.4ZM277 187.6L256 166.6C253.7 164.3 249.9 164.3 247.5 166.6C245.2 168.9 245.2 172.7 247.5 175.1L268.5 196C269.7 197.2 271.2 197.8 272.7 197.8C274.2 197.8 275.8 197.2 276.9 196C279.3 193.8 279.3 190 277 187.6ZM120.8 111.1L60.9996 51.2C58.6996 48.9 54.8996 48.9 52.4996 51.2C50.1996 53.5 50.1996 57.3 52.4996 59.7L112.4 119.6C113.6 120.8 115.1 121.4 116.6 121.4C118.1 121.4 119.7 120.8 120.8 119.6C123.2 117.2 123.2 113.4 120.8 111.1ZM264.3 254.6L141.8 132C139.5 129.7 135.6 129.7 133.3 132C131 134.3 131 138.1 133.3 140.5L255.9 263C257.1 264.2 258.6 264.8 260.1 264.8C261.6 264.8 263.2 264.2 264.3 263C266.7 260.7 266.7 256.9 264.3 254.6ZM177 293.4C177 295.6 175.8 297.6 173.9 298.7L153.1 310.1L141.6 330.9C140.5 332.8 138.5 334 136.3 334C134.1 334 132.1 332.8 131 330.9L119.6 310.1L98.7996 298.7C96.8996 297.7 95.6996 295.6 95.6996 293.4C95.6996 291.2 96.8996 289.2 98.7996 288.1L119.6 276.7L131 255.9C132 254 134.1 252.8 136.3 252.8C138.5 252.8 140.5 254 141.6 255.9L153 276.7L173.8 288.1C175.8 289.2 177 291.3 177 293.4ZM380.4 297.7L347.6 329.7L355.3 374.8C355.7 377 354.8 379.3 352.9 380.7C351.1 382 348.6 382.2 346.6 381.2L306.1 359.9L265.6 381.2C264.7 381.7 263.8 381.9 262.8 381.9C261.6 381.9 260.3 381.5 259.3 380.7C257.4 379.4 256.5 377.1 256.9 374.8L264.6 329.7L231.8 297.8C230.2 296.2 229.6 293.8 230.3 291.7C231 289.5 232.9 287.9 235.1 287.6L280.4 281L300.6 240C301.6 238 303.7 236.7 306 236.7C308.3 236.7 310.4 238 311.4 240L331.6 281L376.9 287.6C379.2 287.9 381 289.5 381.7 291.7C382.6 293.8 382 296.1 380.4 297.7ZM336.3 134.3C336.3 136.5 335.1 138.5 333.2 139.6L312.4 151L301 171.8C300 173.7 297.9 174.9 295.7 174.9C293.5 174.9 291.5 173.7 290.4 171.8L279 151L258.2 139.6C256.3 138.6 255.1 136.5 255.1 134.3C255.1 132.1 256.3 130.1 258.2 129L279 117.6L290.4 96.8C291.4 94.9 293.5 93.7 295.7 93.7C297.9 93.7 299.9 94.9 301 96.8L312.4 117.6L333.2 129C335.1 130.1 336.3 132.1 336.3 134.3Z" fill="url(#paint0_linear_2078_3760)"/>
<defs>
<linearGradient id="paint0_linear_2078_3760" x1="50.1455" y1="53.6874" x2="370.301" y2="362.858" gradientUnits="userSpaceOnUse">
<stop stop-color="#CB5EEE"/>
<stop offset="1" stop-color="#4BE1EC"/>
</linearGradient>
</defs>
</svg>
